<svg id="logo" data-name="logo" xmlns="http://www.w3.org/2000/svg" viewBox="0 0 600 600"><defs><style>.cls-1{fill:#c62828;}.cls-2,.cls-3{fill:#fff;}.cls-3{font-size:350px;font-family:Josefin Sans;}</style></defs><title>Logo</title><path class="cls-1 logo-circle" d="M300,592A292,292,0,0,1,93.52,93.52a292,292,0,0,1,413,413A290.09,290.09,0,0,1,300,592Z"/><path class="cls-2 logo-shadow" d="M300,16A284.08,284.08,0,0,1,410.54,561.69,284.08,284.08,0,0,1,189.46,38.31,282.21,282.21,0,0,1,300,16m0-16C134.31,0,0,134.31,0,300S134.31,600,300,600,600,465.69,600,300,465.69,0,300,0h0Z"/><text class="cls-3 logo-R" transform="translate(107.56 316)">R</text><text class="cls-3 logo-D" transform="translate(268.36 507.86)">D</text></svg>